<svg xmlns="http://www.w3.org/2000/svg" xmlns:xlink="http://www.w3.org/1999/xlink" width="2000" zoomAndPan="magnify" viewBox="0 0 1500 1499.999933" height="2000" preserveAspectRatio="xMidYMid meet" version="1.0"><defs><g/><clipPath id="ec1f801739"><path d="M 0 353.070312 L 1500 353.070312 L 1500 883.320312 L 0 883.320312 Z M 0 353.070312 " clip-rule="nonzero"/></clipPath><clipPath id="ce31615f76"><path d="M 22.449219 473.089844 L 842.046875 473.089844 L 842.046875 763.480469 L 22.449219 763.480469 Z M 22.449219 473.089844 " clip-rule="nonzero"/></clipPath></defs><g clip-path="url(#ec1f801739)"><path stroke-linecap="butt" transform="matrix(0.75, 0, 0, 0.749751, 0.00108, 353.071913)" fill="none" stroke-linejoin="miter" d="M -0.00144 -0.00213443 L 1999.998604 -0.00213443 L 1999.998604 707.232276 L -0.00144 707.232276 L -0.00144 -0.00213443 " stroke="#000000" stroke-width="24" stroke-opacity="1" stroke-miterlimit="4"/></g><g clip-path="url(#ce31615f76)"><path fill="#000000" d="M 22.449219 473.089844 L 843.992188 473.089844 L 843.992188 765.609375 L 22.449219 765.609375 Z M 22.449219 473.089844 " fill-opacity="1" fill-rule="nonzero"/></g><g fill="#ffffff" fill-opacity="1"><g transform="translate(63.210583, 682.347825)"><g><path d="M 20.753906 0 L 38.660156 0 L 38.660156 -109.0625 L 85.867188 -37.847656 L 100.519531 -37.847656 L 147.726562 -108.859375 L 147.726562 0 L 165.632812 0 L 165.632812 -142.433594 L 148.945312 -142.433594 L 93.394531 -57.992188 L 37.441406 -142.433594 L 20.753906 -142.433594 Z M 20.753906 0 "/></g></g></g><g fill="#ffffff" fill-opacity="1"><g transform="translate(264.999342, 682.347825)"><g><path d="M 85.460938 2.644531 C 128.800781 2.644531 159.324219 -27.875 159.324219 -71.21875 C 159.324219 -114.558594 128.800781 -145.078125 85.460938 -145.078125 C 42.121094 -145.078125 11.800781 -114.558594 11.800781 -71.21875 C 11.800781 -27.875 42.121094 2.644531 85.460938 2.644531 Z M 30.113281 -71.21875 C 30.113281 -104.382812 52.699219 -127.171875 85.460938 -127.171875 C 118.222656 -127.171875 140.808594 -104.382812 140.808594 -71.21875 C 140.808594 -38.050781 118.222656 -15.261719 85.460938 -15.261719 C 52.699219 -15.261719 30.113281 -38.050781 30.113281 -71.21875 Z M 30.113281 -71.21875 "/></g></g></g><g fill="#ffffff" fill-opacity="1"><g transform="translate(451.32896, 682.347825)"><g><path d="M 60.230469 0 L 76.914062 0 L 133.480469 -142.433594 L 114.558594 -142.433594 L 90.75 -82.410156 L 68.570312 -25.839844 L 46.191406 -82.410156 L 22.585938 -142.433594 L 3.460938 -142.433594 Z M 60.230469 0 "/></g></g></g><g fill="#ffffff" fill-opacity="1"><g transform="translate(603.689185, 682.347825)"><g><path d="M 20.753906 0 L 38.660156 0 L 38.660156 -142.433594 L 20.753906 -142.433594 Z M 20.753906 0 "/></g></g></g><g fill="#ffffff" fill-opacity="1"><g transform="translate(678.550244, 682.347825)"><g><path d="M 20.753906 0 L 109.472656 0 L 109.472656 -16.683594 L 38.660156 -16.683594 L 38.660156 -64.300781 L 102.144531 -64.300781 L 102.144531 -80.78125 L 38.660156 -80.78125 L 38.660156 -125.75 L 107.234375 -125.75 L 107.234375 -142.433594 L 20.753906 -142.433594 Z M 20.753906 0 "/></g></g></g><g fill="#000000" fill-opacity="1"><g transform="translate(864.674402, 685.017514)"><g><path d="M 14.902344 0 L 55.183594 0 L 55.183594 -71.496094 L 82.375 -33.433594 L 108.757812 -33.433594 L 135.746094 -71.296875 L 135.746094 0 L 176.027344 0 L 176.027344 -140.980469 L 142.996094 -140.980469 L 95.464844 -73.914062 L 48.136719 -140.980469 L 14.902344 -140.980469 Z M 14.902344 0 "/></g></g></g><g fill="#000000" fill-opacity="1"><g transform="translate(1055.545182, 685.017514)"><g><path d="M 1.007812 0 L 44.105469 0 L 51.761719 -19.9375 L 99.894531 -19.9375 L 107.550781 0 L 150.851562 0 L 96.070312 -140.980469 L 55.789062 -140.980469 Z M 60.21875 -49.746094 L 75.929688 -93.449219 L 91.636719 -49.746094 Z M 60.21875 -49.746094 "/></g></g></g><g fill="#000000" fill-opacity="1"><g transform="translate(1207.355884, 685.017514)"><g><path d="M 48.539062 0 L 89.019531 0 L 89.019531 -103.320312 L 131.917969 -103.320312 L 131.917969 -140.980469 L 5.640625 -140.980469 L 5.640625 -103.320312 L 48.539062 -103.320312 Z M 48.539062 0 "/></g></g></g><g fill="#000000" fill-opacity="1"><g transform="translate(1344.871464, 685.017514)"><g><path d="M 14.902344 0 L 113.792969 0 L 113.792969 -33.230469 L 55.183594 -33.230469 L 55.183594 -54.984375 L 106.140625 -54.984375 L 106.140625 -87.609375 L 55.183594 -87.609375 L 55.183594 -108.152344 L 111.578125 -108.152344 L 111.578125 -140.980469 L 14.902344 -140.980469 Z M 14.902344 0 "/></g></g></g></svg>