<svg width="1221" height="1796" viewBox="0 0 1221 1796" fill="none" xmlns="http://www.w3.org/2000/svg">
<g clip-path="url(#clip0_3_10)">
<g clip-path="url(#clip1_3_10)">
<path d="M923.019 1790.55C915.949 1794.24 908.215 1796 900.548 1796C884.971 1796 869.813 1788.72 861.483 1775.65L636.904 1424.37V1754.07C636.904 1776.52 616.731 1794.76 591.807 1794.76C566.95 1794.76 546.732 1776.52 546.732 1754.07V1424.35L322.197 1775.65C313.845 1788.72 298.71 1796 283.11 1796C275.465 1796 267.688 1794.24 260.595 1790.55C239.03 1779.32 231.672 1754.41 244.134 1734.96L532.812 1283.32H463.366C442.662 1283.3 425.781 1268.06 425.759 1249.36V1160.3C425.781 1141.58 442.684 1126.33 463.366 1126.33H720.315C741.018 1126.33 757.877 1141.6 757.877 1160.3V1249.36C757.877 1268.08 740.996 1283.3 720.315 1283.32H650.824L939.525 1734.94C951.987 1754.41 944.607 1779.3 923.019 1790.55ZM799.218 551.372C799.041 645.303 714.526 721.653 610.5 721.812C506.474 721.653 421.981 645.303 421.782 551.372C421.981 457.421 506.474 381.111 610.5 380.912C714.526 381.111 799.041 457.401 799.218 551.372ZM719.564 551.392C719.564 497.053 670.644 452.871 610.5 452.871C550.378 452.871 501.436 497.033 501.436 551.392C501.436 605.691 550.356 649.873 610.5 649.873C670.666 649.873 719.564 605.711 719.564 551.392ZM1221 370.635V732.109C1221 745.54 1208.98 754.799 1194.33 752.664L879.911 707.245C865.24 705.11 845.42 711.815 835.852 722.112L799.55 754.899C788.17 763.519 780.746 781.42 783.11 794.69L833.422 1078.64C835.742 1091.91 825.556 1102.74 810.664 1102.74H410.381C395.51 1102.74 385.28 1091.91 387.622 1078.64L437.956 794.69C440.298 781.4 432.896 763.519 421.473 754.899L385.192 722.112C375.624 711.815 355.805 705.11 341.133 707.245L26.6914 752.684C12.02 754.819 0 745.559 0 732.129V370.635C0 357.204 12.02 347.965 26.6914 350.1L341.133 395.539C355.805 397.634 375.624 390.969 385.192 380.652L421.473 347.845C432.896 339.244 440.298 321.324 437.956 308.074L387.622 24.1063C385.28 10.8758 395.51 0 410.381 0H810.664C825.556 0 835.764 10.8758 833.422 24.1063L783.11 308.074C780.768 321.324 788.17 339.244 799.55 347.845L835.852 380.652C845.442 390.949 865.24 397.634 879.911 395.539L1194.33 350.1C1208.98 347.965 1221 357.204 1221 370.635ZM852.8 551.372C852.8 430.501 744.333 332.539 610.522 332.539C476.689 332.539 368.244 430.521 368.222 551.372C368.244 672.243 476.711 770.205 610.522 770.205C744.333 770.205 852.8 672.243 852.8 551.372Z" fill="#070101"/>
</g>
</g>
<defs>
<clipPath id="clip0_3_10">
<rect width="1221" height="1796" fill="white"/>
</clipPath>
<clipPath id="clip1_3_10">
<rect width="1221" height="1796" fill="white"/>
</clipPath>
</defs>
</svg>
